<svg width="0" height="0" class="hidden">
  <symbol xmlns="http://www.w3.org/2000/svg" viewBox="0 0 512 512" id="basket-outline">
    <title>Basket</title>
    <path d="M68.4 192A20.38 20.38 0 0048 212.2a17.87 17.87 0 00.8 5.5L100.5 400a40.46 40.46 0 0039.1 29.5h232.8a40.88 40.88 0 0039.3-29.5l51.7-182.3.6-5.5a20.38 20.38 0 00-20.4-20.2H68.4zm193.32 160.07A42.07 42.07 0 11304 310a42.27 42.27 0 01-42.28 42.07z" fill="none" stroke="currentColor" stroke-linejoin="round" stroke-width="32"></path>
    <path fill="none" stroke="currentColor" stroke-linejoin="round" stroke-width="32" d="M160 192l96-128 96 128"></path>
  </symbol>
  <symbol xmlns="http://www.w3.org/2000/svg" viewBox="0 0 512 512" id="trophy-outline">
    <title>Trophy</title>
    <path fill="none" stroke="currentColor" stroke-linecap="round" stroke-linejoin="round" stroke-width="32" d="M176 464h160m-80 0V336m128-112c0-50.64-.08-134.63-.12-160a16 16 0 00-16-16l-223.79.26a16 16 0 00-16 15.95c0 30.58-.13 129.17-.13 159.79 0 64.28 83 112 128 112S384 288.28 384 224z"></path>
    <path d="M128 96H48v16c0 55.22 33.55 112 80 112M384 96h80v16c0 55.22-33.55 112-80 112" fill="none" stroke="currentColor" stroke-linecap="round" stroke-linejoin="round" stroke-width="32"></path>
  </symbol>
  <symbol xmlns="http://www.w3.org/2000/svg" viewBox="0 0 512 512" id="diamond-outline">
    <title>Diamond</title>
    <path d="M35.42 188.21l207.75 269.46a16.17 16.17 0 0025.66 0l207.75-269.46a16.52 16.52 0 00.95-18.75L407.06 55.71A16.22 16.22 0 00393.27 48H118.73a16.22 16.22 0 00-13.79 7.71L34.47 169.46a16.52 16.52 0 00.95 18.75zM48 176h416" fill="none" stroke="currentColor" stroke-linecap="round" stroke-linejoin="round" stroke-width="32"></path>
    <path fill="none" stroke="currentColor" stroke-linecap="round" stroke-linejoin="round" stroke-width="32" d="M400 64l-48 112-96-128M112 64l48 112 96-128m0 400l-96-272m96 272l96-272"></path>
  </symbol>
</svg>