<svg width="0" height="0" class="hidden">
  <symbol xmlns="http://www.w3.org/2000/svg" viewBox="0 0 512 512" id="checkbox-outline">
    <title>Checkbox</title>
    <path fill="none" stroke="currentColor" stroke-linecap="round" stroke-linejoin="round" stroke-width="32" d="M352 176L217.6 336 160 272"></path>
    <rect x="64" y="64" width="384" height="384" rx="48" ry="48" fill="none" stroke="currentColor" stroke-linejoin="round" stroke-width="32"></rect>
  </symbol>
  <symbol xmlns="http://www.w3.org/2000/svg" viewBox="0 0 512 512" id="checkmark-done-outline">
    <title>Checkmark Done</title>
    <path fill="none" stroke="currentColor" stroke-linecap="round" stroke-linejoin="round" stroke-width="32" d="M464 128L240 384l-96-96m0 96l-96-96m320-160L232 284"></path>
  </symbol>
  <symbol xmlns="http://www.w3.org/2000/svg" viewBox="0 0 512 512" id="diamond-outline">
    <title>Diamond</title>
    <path d="M35.42 188.21l207.75 269.46a16.17 16.17 0 0025.66 0l207.75-269.46a16.52 16.52 0 00.95-18.75L407.06 55.71A16.22 16.22 0 00393.27 48H118.73a16.22 16.22 0 00-13.79 7.71L34.47 169.46a16.52 16.52 0 00.95 18.75zM48 176h416" fill="none" stroke="currentColor" stroke-linecap="round" stroke-linejoin="round" stroke-width="32"></path>
    <path fill="none" stroke="currentColor" stroke-linecap="round" stroke-linejoin="round" stroke-width="32" d="M400 64l-48 112-96-128M112 64l48 112 96-128m0 400l-96-272m96 272l96-272"></path>
  </symbol>
  <symbol xmlns="http://www.w3.org/2000/svg" viewBox="0 0 512 512" id="checkmark-outline">
    <title>Checkmark</title>
    <path fill="none" stroke="currentColor" stroke-linecap="round" stroke-linejoin="round" stroke-width="32" d="M416 128L192 384l-96-96"></path>
  </symbol>
</svg>